<svg xmlns="http://www.w3.org/2000/svg" xmlns:svg="http://www.w3.org/2000/svg" xmlns:xlink="http://www.w3.org/1999/xlink" id="svg2" width="48" height="48" enable-background="new 0 0 128 129.396" overflow="visible" version="1.0" xml:space="preserve"><metadata id="metadata367"/><defs id="defs365"><linearGradient id="linearGradient4977"><stop style="stop-color:red;stop-opacity:1" id="stop4979" offset="0"/><stop style="stop-color:red;stop-opacity:0" id="stop4981" offset="1"/></linearGradient><radialGradient id="radialGradient5031" cx="605.714" cy="486.648" r="117.143" fx="605.714" fy="486.648" gradientTransform="matrix(-2.774389,0,0,1.969706,112.7623,-872.8854)" gradientUnits="userSpaceOnUse" xlink:href="#linearGradient5060"/><linearGradient id="linearGradient5060"><stop style="stop-color:black;stop-opacity:1" id="stop5062" offset="0"/><stop style="stop-color:black;stop-opacity:0" id="stop5064" offset="1"/></linearGradient><radialGradient id="radialGradient5029" cx="605.714" cy="486.648" r="117.143" fx="605.714" fy="486.648" gradientTransform="matrix(2.774389,0,0,1.969706,-1891.633,-872.8854)" gradientUnits="userSpaceOnUse" xlink:href="#linearGradient5060"/><linearGradient id="linearGradient5048"><stop style="stop-color:black;stop-opacity:0" id="stop5050" offset="0"/><stop id="stop5056" offset=".5" style="stop-color:black;stop-opacity:1"/><stop style="stop-color:black;stop-opacity:0" id="stop5052" offset="1"/></linearGradient><linearGradient id="linearGradient5027" x1="302.857" x2="302.857" y1="366.648" y2="609.505" gradientTransform="matrix(2.774389,0,0,1.969706,-1892.179,-872.8854)" gradientUnits="userSpaceOnUse" xlink:href="#linearGradient5048"/><linearGradient id="linearGradient2406"><stop style="stop-color:#7c7e79;stop-opacity:1" id="stop2408" offset="0"/><stop id="stop2414" offset=".172" style="stop-color:#848681;stop-opacity:1"/><stop style="stop-color:#898c86;stop-opacity:1" id="stop2410" offset="1"/></linearGradient><linearGradient id="linearGradient2390"><stop style="stop-color:#919191;stop-opacity:1" id="stop2392" offset="0"/><stop style="stop-color:#919191;stop-opacity:0" id="stop2394" offset="1"/></linearGradient><linearGradient id="linearGradient2378"><stop style="stop-color:#575757;stop-opacity:1" id="stop2380" offset="0"/><stop style="stop-color:#575757;stop-opacity:0" id="stop2382" offset="1"/></linearGradient><linearGradient id="linearGradient2368"><stop style="stop-color:#fff;stop-opacity:1" id="stop2370" offset="0"/><stop style="stop-color:#fff;stop-opacity:0" id="stop2372" offset="1"/></linearGradient><linearGradient id="linearGradient2349"><stop style="stop-color:#000;stop-opacity:1" id="stop2351" offset="0"/><stop style="stop-color:#000;stop-opacity:0" id="stop2353" offset="1"/></linearGradient><linearGradient id="linearGradient2341"><stop id="stop2343" offset="0" style="stop-color:#000;stop-opacity:1"/><stop id="stop2345" offset="1" style="stop-color:#000;stop-opacity:0"/></linearGradient><linearGradient id="linearGradient2329"><stop style="stop-color:#000;stop-opacity:.18556701" id="stop2331" offset="0"/><stop style="stop-color:#fff;stop-opacity:1" id="stop2333" offset="1"/></linearGradient><linearGradient id="linearGradient2319"><stop style="stop-color:#000;stop-opacity:1" id="stop2321" offset="0"/><stop style="stop-color:#000;stop-opacity:0" id="stop2323" offset="1"/></linearGradient><linearGradient id="linearGradient2307"><stop style="stop-color:#edd400;stop-opacity:1" id="stop2309" offset="0"/><stop style="stop-color:#980;stop-opacity:1" id="stop2311" offset="1"/></linearGradient><linearGradient id="linearGradient2299"><stop style="stop-color:#fff;stop-opacity:1" id="stop2301" offset="0"/><stop style="stop-color:#fff;stop-opacity:0" id="stop2303" offset="1"/></linearGradient><linearGradient id="XMLID_2_" x1="80.224" x2="48.046" y1="117.52" y2="59.8" gradientTransform="matrix(0.314683,0.000000,0.000000,0.314683,4.128264,3.742874)" gradientUnits="userSpaceOnUse"><stop style="stop-color:#ccc" id="stop17" offset="0"/><stop style="stop-color:#fff" id="stop19" offset=".983"/><midPointStop style="stop-color:#ccc" id="midPointStop48" offset="0"/><midPointStop style="stop-color:#ccc" id="midPointStop50" offset=".5"/><midPointStop style="stop-color:#fff" id="midPointStop52" offset=".983"/></linearGradient><linearGradient id="linearGradient1514" x1="52.006" x2="14.049" y1="166.133" y2="-42.219" gradientTransform="matrix(0.336922,0,0,0.166888,143.49433,15.46151)" gradientUnits="userSpaceOnUse" xlink:href="#XMLID_2_"/><linearGradient id="XMLID_39_" x1="64.388" x2="64.388" y1="65.124" y2="35.569" gradientTransform="matrix(0.354101,0,0,0.354101,127.15013,-0.08364921)" gradientUnits="userSpaceOnUse"><stop style="stop-color:#fff" id="stop336" offset="0"/><stop style="stop-color:#ff6200" id="stop338" offset=".854"/><stop style="stop-color:#f25d00" id="stop340" offset="1"/><midPointStop style="stop-color:#fff" id="midPointStop335" offset="0"/><midPointStop style="stop-color:#fff" id="midPointStop337" offset=".5"/><midPointStop style="stop-color:#ff6200" id="midPointStop339" offset=".854"/><midPointStop style="stop-color:#ff6200" id="midPointStop341" offset=".5"/><midPointStop style="stop-color:#f25d00" id="midPointStop343" offset="1"/></linearGradient><radialGradient id="radialGradient2305" cx="7.533" cy="24.203" r="8.245" fx="7.533" fy="24.203" gradientTransform="matrix(4.100086,0,0,4.201322,100.09639,-78.53967)" gradientUnits="userSpaceOnUse" xlink:href="#linearGradient2299"/><radialGradient id="radialGradient2313" cx="19.986" cy="36.778" r="1.082" fx="19.986" fy="36.778" gradientTransform="matrix(1.125263,0,0,0.982744,122.08278,0.565787)" gradientUnits="userSpaceOnUse" xlink:href="#linearGradient2307"/><radialGradient id="radialGradient2325" cx="20.444" cy="37.426" r="1.082" fx="20.444" fy="37.426" gradientTransform="matrix(1.125263,0,0,0.982744,122.08278,0.731106)" gradientUnits="userSpaceOnUse" xlink:href="#linearGradient2319"/><linearGradient id="linearGradient2335" x1="17.603" x2="17.683" y1="26.057" y2="32.654" gradientTransform="matrix(0.898789,0,0,1.071914,125.98948,-2.080838)" gradientUnits="userSpaceOnUse" xlink:href="#linearGradient2329"/><radialGradient id="radialGradient2339" cx="11.681" cy="19.554" r="8.245" fx="11.681" fy="19.554" gradientTransform="matrix(4.100086,0,0,-4.201322,120.31334,105.3535)" gradientUnits="userSpaceOnUse" xlink:href="#linearGradient2341"/><radialGradient id="radialGradient2355" cx="24.023" cy="40.569" r="16.287" fx="24.023" fy="40.569" gradientTransform="matrix(1.000000,0.000000,0.000000,0.431250,1.157278e-15,23.07369)" gradientUnits="userSpaceOnUse" xlink:href="#linearGradient2349"/><radialGradient id="radialGradient2374" cx="29.913" cy="30.443" r="4.002" fx="29.913" fy="30.443" gradientTransform="matrix(3.751495,0,0,3.147818,43.502383,-65.70704)" gradientUnits="userSpaceOnUse" xlink:href="#linearGradient2368"/><radialGradient id="radialGradient2384" cx="24.195" cy="10.578" r="15.243" fx="24.195" fy="10.578" gradientTransform="matrix(1.125263,-3.585417e-8,4.269819e-8,1.340059,122.50475,1.355395)" gradientUnits="userSpaceOnUse" xlink:href="#linearGradient2378"/><linearGradient id="linearGradient2396" x1="30.604" x2="30.604" y1="37.338" y2="36.112" gradientTransform="matrix(1.263867,0,0,0.859794,-6.499556,8.390924)" gradientUnits="userSpaceOnUse" xlink:href="#linearGradient2390"/><linearGradient id="linearGradient2412" x1="17.85" x2="19.04" y1="28.939" y2="41.032" gradientTransform="matrix(0.888785,0,0,1.08932,127.92244,-1.524336)" gradientUnits="userSpaceOnUse" xlink:href="#linearGradient2406"/><linearGradient id="linearGradient4689" x1="302.857" x2="302.857" y1="366.648" y2="609.505" gradientTransform="matrix(2.774389,0,0,1.969706,-1892.179,-872.8854)" gradientUnits="userSpaceOnUse" xlink:href="#linearGradient5048"/><radialGradient id="radialGradient4691" cx="605.714" cy="486.648" r="117.143" fx="605.714" fy="486.648" gradientTransform="matrix(2.774389,0,0,1.969706,-1891.633,-872.8854)" gradientUnits="userSpaceOnUse" xlink:href="#linearGradient5060"/><radialGradient id="radialGradient4693" cx="605.714" cy="486.648" r="117.143" fx="605.714" fy="486.648" gradientTransform="matrix(-2.774389,0,0,1.969706,112.7623,-872.8854)" gradientUnits="userSpaceOnUse" xlink:href="#linearGradient5060"/><linearGradient id="linearGradient4894" x1="302.857" x2="302.857" y1="366.648" y2="609.505" gradientTransform="matrix(2.774389,0,0,1.969706,-1892.179,-872.8854)" gradientUnits="userSpaceOnUse" xlink:href="#linearGradient5048"/><radialGradient id="radialGradient4896" cx="605.714" cy="486.648" r="117.143" fx="605.714" fy="486.648" gradientTransform="matrix(2.774389,0,0,1.969706,-1891.633,-872.8854)" gradientUnits="userSpaceOnUse" xlink:href="#linearGradient5060"/><radialGradient id="radialGradient4898" cx="605.714" cy="486.648" r="117.143" fx="605.714" fy="486.648" gradientTransform="matrix(-2.774389,0,0,1.969706,112.7623,-872.8854)" gradientUnits="userSpaceOnUse" xlink:href="#linearGradient5060"/><filter id="filter4971" width="1.13" height="4.891" x="-.065" y="-1.946"><feGaussianBlur id="feGaussianBlur4973" stdDeviation=".811"/></filter><linearGradient id="linearGradient4983" x1="23.688" x2="23.75" y1="32" y2="45.25" gradientUnits="userSpaceOnUse" xlink:href="#linearGradient4977"/></defs><g style="display:inline" id="g5022" transform="matrix(0.02158196,0,0,0.01859457,168.63396,41.63767)"><rect id="rect4173" width="1339.633" height="478.357" x="-1559.252" y="-150.697" style="opacity:.40206185;color:#000;fill:url(#linearGradient5027);fill-opacity:1;fill-rule:nonzero;stroke:none;stroke-width:1;marker:none;visibility:visible;display:inline;overflow:visible"/><path id="path5058" d="m -219.61876,-150.68038 c 0,0 0,478.33079 0,478.33079 142.874166,0.90045 345.40022,-107.16966 345.40014,-239.196175 0,-132.026537 -159.436816,-239.134595 -345.40014,-239.134615 z" style="opacity:.40206185;color:#000;fill:url(#radialGradient5029);fill-opacity:1;fill-rule:nonzero;stroke:none;stroke-width:1;marker:none;visibility:visible;display:inline;overflow:visible"/><path style="opacity:.40206185;color:#000;fill:url(#radialGradient5031);fill-opacity:1;fill-rule:nonzero;stroke:none;stroke-width:1;marker:none;visibility:visible;display:inline;overflow:visible" id="path5018" d="m -1559.2523,-150.68038 c 0,0 0,478.33079 0,478.33079 -142.8742,0.90045 -345.4002,-107.16966 -345.4002,-239.196175 0,-132.026537 159.4368,-239.134595 345.4002,-239.134615 z"/></g><path style="color:#000;fill:url(#linearGradient1514);fill-opacity:1;fill-rule:nonzero;stroke:#757575;stroke-width:1.0000006;stroke-linecap:butt;stroke-linejoin:miter;stroke-miterlimit:4;stroke-opacity:1;stroke-dashoffset:0;marker:none;visibility:visible;display:inline;overflow:visible" id="rect1512" d="m 147.13103,8.1833733 5.95746,0 c 0.83973,0 13.88647,15.4353277 13.88647,16.3406587 l -0.44352,18.496745 c 0,0.905333 -0.67603,1.634177 -1.51576,1.634177 l -31.45728,0 c -0.83973,0 -1.51576,-0.728844 -1.51576,-1.634177 l 0.0565,-18.496745 c 0,-0.905331 14.19218,-16.3406587 15.03191,-16.3406587 z"/><path style="fill:none" id="path5" d="m 172.47503,45.735573 -45.3249,0 0,-45.32489746 45.3249,0 0,45.32489746 z"/><path style="fill:url(#linearGradient2335);fill-opacity:1;fill-rule:evenodd" id="path2327" d="m 148.51145,29 -0.0457,15.090942 -11.84279,0 L 136.51145,29 l 12,0 z" clip-rule="evenodd"/><path id="path2357" d="m 147.29191,9.405584 5.5591,0 c 0.78358,0 13.00087,14.399588 13.00087,15.244172 l -0.34716,18.212311 c 0,0.459259 -0.14374,0.653465 -0.51237,0.653465 l -31.38721,0.01428 c -0.36863,0 -0.58396,-0.07992 -0.58396,-0.45355 l 0.21534,-18.426506 c 0,-0.844584 13.27181,-15.244172 14.05539,-15.244172 z" style="opacity:.3125;color:#000;fill:none;stroke:#fff;stroke-width:1.00000012;stroke-linecap:butt;stroke-linejoin:miter;stroke-miterlimit:4;stroke-opacity:1;stroke-dashoffset:0;marker:none;visibility:visible;display:inline;overflow:visible"/><path id="path23" d="m 132.71898,27.943053 -0.0543,2.595194 18.36817,-13.179254 15.28639,11.154428 0.0713,-0.311714 -16.37045,-15.904131 -17.30116,15.645477 z" clip-rule="evenodd" style="opacity:.2;fill:url(#radialGradient2384);fill-opacity:1;fill-rule:evenodd"/><path id="path188" d="m 147.51145,30 0,14.090942 -9.81103,0 L 137.51145,30 l 10,0 z" clip-rule="evenodd" style="fill:url(#linearGradient2412);fill-opacity:1;fill-rule:evenodd"/><path style="opacity:.40909089;fill:url(#radialGradient2325);fill-opacity:1;fill-rule:evenodd" id="path2315" d="m 145.08831,36.44767 c 0.67279,0 1.21662,0.474605 1.21662,1.058507 0,0.589811 -0.54383,1.068355 -1.21662,1.068355 -0.67227,0 -1.21869,-0.478544 -1.21869,-1.068355 5.2e-4,-0.583902 0.54642,-1.058507 1.21869,-1.058507 z" clip-rule="evenodd"/><path id="path217" d="m 144.97377,35.932229 c 0.67279,0 1.21661,0.474605 1.21661,1.058507 0,0.589809 -0.54382,1.068353 -1.21661,1.068353 -0.67228,0 -1.21869,-0.478544 -1.21869,-1.068353 5.2e-4,-0.583902 0.54641,-1.058507 1.21869,-1.058507 z" clip-rule="evenodd" style="fill:url(#radialGradient2313);fill-opacity:1;fill-rule:evenodd"/><path id="path342" d="m 149.9592,11.559337 18.92706,17.169868 0.49468,0.391991 0.40368,-0.171385 -0.37287,-0.761673 -0.27762,-0.223436 -19.17493,-15.572306 -19.38951,15.743335 -0.23761,0.14412 -0.21671,0.706786 0.43342,0.129248 0.38456,-0.308423 19.02585,-17.248125 z" style="fill:url(#XMLID_39_)"/><path style="fill:#ef2929;stroke:#a40000" id="path362" d="m 149.84162,2.2713382 -21.88174,18.1013368 -0.62473,7.165928 1.99994,2.064323 c 0,0 20.40738,-17.157285 20.62409,-17.327963 l 19.63254,17.54326 1.89843,-2.323997 -1.61579,-7.111374 -19.91518,-18.2159732 -0.11756,0.1044594 z"/><path style="opacity:.40909089;color:#000;fill:url(#radialGradient2305);fill-opacity:1;fill-rule:nonzero;stroke:none;stroke-width:1;marker:none;visibility:visible;display:inline;overflow:visible" id="path1536" d="M 128.3528,20.613129 128.06124,27.236494 149.88067,8.980075 149.81034,3.0867443 128.3528,20.613129 z"/><path id="path2337" d="m 149.99522,8.7509884 0.0995,-5.8411017 19.32896,17.6519533 1.49181,6.500812 -20.92023,-18.3116636 z" style="opacity:.13636367;color:#000;fill:url(#radialGradient2339);fill-opacity:1;fill-rule:nonzero;stroke:none;stroke-width:1;marker:none;visibility:visible;display:inline;overflow:visible"/><path style="opacity:.31818183;color:#000;fill:none;stroke:#fff;stroke-width:.99999934;stroke-linecap:butt;stroke-linejoin:miter;stroke-miterlimit:4;stroke-opacity:1;stroke-dashoffset:0;marker:none;visibility:visible;display:inline;overflow:visible" id="rect2361" d="m 152.61368,27.719824 9.04,0 c 0.77059,0 1.39096,0.62037 1.39096,1.390967 l -0.008,9.079221 c 0,0.770596 -0.59632,1.265969 -1.36691,1.265969 l -9.05609,0 c -0.77059,0 -1.39096,-0.620373 -1.39096,-1.390969 l 0,-8.954221 c 0,-0.770597 0.62037,-1.390967 1.39096,-1.390967 z"/><rect style="color:#000;fill:#3465a4;fill-opacity:1;fill-rule:nonzero;stroke:#757575;stroke-width:.9999994;stroke-linecap:butt;stroke-linejoin:miter;stroke-miterlimit:4;stroke-opacity:1;stroke-dasharray:none;stroke-dashoffset:0;marker:none;visibility:visible;display:inline;overflow:visible" id="rect3263" width="10.001" height="9.962" x="152.019" y="28.514" rx=".381" ry=".381"/><path style="opacity:.39772728;color:#000;fill:url(#radialGradient2374);fill-opacity:1;fill-rule:nonzero;stroke:none;stroke-width:.99999958;marker:none;visibility:visible;display:inline;overflow:visible" id="rect2363" d="m 152.61857,34.408261 c 3.61798,0.331177 5.52773,-1.445704 8.86815,-1.55274 l 0.0247,-3.849491 -8.91161,-0.006 0.0187,5.408261 z"/><g id="g4739" transform="translate(65.937707,2.0108349)"><path style="fill:#6adb4d;fill-opacity:1;stroke:#34781d;stroke-width:1.05264175;stroke-miterlimit:4;stroke-opacity:1;stroke-dasharray:none" id="path4741" d="m 30.670757,8.2694378 c 0,2.9289322 -2.374368,5.3033012 -5.303301,5.3033012 -2.928932,0 -5.3033,-2.374369 -5.3033,-5.3033012 0,-2.9289322 2.374368,-5.3033009 5.3033,-5.3033009 2.928933,0 5.303301,2.3743687 5.303301,5.3033009 z" transform="matrix(0.95416667,0,0,0.94583333,1.405743,0.73519001)"/><path id="path4743" d="m 30.670757,8.2694378 c 0,2.9289322 -2.374368,5.3033012 -5.303301,5.3033012 -2.928932,0 -5.3033,-2.374369 -5.3033,-5.3033012 0,-2.9289322 2.374368,-5.3033009 5.3033,-5.3033009 2.928933,0 5.303301,2.3743687 5.303301,5.3033009 z" transform="matrix(0.77083333,0,0,0.77916666,6.0564434,2.1576238)" style="fill:none;stroke:#b3ff9a;stroke-width:1.29034114;stroke-miterlimit:4;stroke-opacity:1;stroke-dasharray:none"/></g><g id="g4733" transform="translate(76.897863,5.0160386)"><path id="path4735" d="m 30.670757,8.2694378 c 0,2.9289322 -2.374368,5.3033012 -5.303301,5.3033012 -2.928932,0 -5.3033,-2.374369 -5.3033,-5.3033012 0,-2.9289322 2.374368,-5.3033009 5.3033,-5.3033009 2.928933,0 5.303301,2.3743687 5.303301,5.3033009 z" transform="matrix(0.95416667,0,0,0.94583333,1.405743,0.73519001)" style="fill:#6adb4d;fill-opacity:1;stroke:#34781d;stroke-width:1.05264175;stroke-miterlimit:4;stroke-opacity:1;stroke-dasharray:none"/><path style="fill:none;stroke:#b3ff9a;stroke-width:1.29034114;stroke-miterlimit:4;stroke-opacity:1;stroke-dasharray:none" id="path4737" d="m 30.670757,8.2694378 c 0,2.9289322 -2.374368,5.3033012 -5.303301,5.3033012 -2.928932,0 -5.3033,-2.374369 -5.3033,-5.3033012 0,-2.9289322 2.374368,-5.3033009 5.3033,-5.3033009 2.928933,0 5.303301,2.3743687 5.303301,5.3033009 z" transform="matrix(0.77083333,0,0,0.77916666,6.0564434,2.1576238)"/></g><g id="g4727" transform="translate(70.887455,7.0268736)"><path style="fill:#6adb4d;fill-opacity:1;stroke:#34781d;stroke-width:1.05264175;stroke-miterlimit:4;stroke-opacity:1;stroke-dasharray:none" id="path4729" d="m 30.670757,8.2694378 c 0,2.9289322 -2.374368,5.3033012 -5.303301,5.3033012 -2.928932,0 -5.3033,-2.374369 -5.3033,-5.3033012 0,-2.9289322 2.374368,-5.3033009 5.3033,-5.3033009 2.928933,0 5.303301,2.3743687 5.303301,5.3033009 z" transform="matrix(0.95416667,0,0,0.94583333,1.405743,0.73519001)"/><path id="path4731" d="m 30.670757,8.2694378 c 0,2.9289322 -2.374368,5.3033012 -5.303301,5.3033012 -2.928932,0 -5.3033,-2.374369 -5.3033,-5.3033012 0,-2.9289322 2.374368,-5.3033009 5.3033,-5.3033009 2.928933,0 5.303301,2.3743687 5.303301,5.3033009 z" transform="matrix(0.77083333,0,0,0.77916666,6.0564434,2.1576238)" style="fill:none;stroke:#b3ff9a;stroke-width:1.29034114;stroke-miterlimit:4;stroke-opacity:1;stroke-dasharray:none"/></g><g id="g4723" transform="translate(59.662134,5.9662134)"><path id="path4719" d="m 30.670757,8.2694378 c 0,2.9289322 -2.374368,5.3033012 -5.303301,5.3033012 -2.928932,0 -5.3033,-2.374369 -5.3033,-5.3033012 0,-2.9289322 2.374368,-5.3033009 5.3033,-5.3033009 2.928933,0 5.303301,2.3743687 5.303301,5.3033009 z" transform="matrix(0.95416667,0,0,0.94583333,1.405743,0.73519001)" style="fill:#6adb4d;fill-opacity:1;stroke:#34781d;stroke-width:1.05264175;stroke-miterlimit:4;stroke-opacity:1;stroke-dasharray:none"/><path style="fill:none;stroke:#b3ff9a;stroke-width:1.29034114;stroke-miterlimit:4;stroke-opacity:1;stroke-dasharray:none" id="path4721" d="m 30.670757,8.2694378 c 0,2.9289322 -2.374368,5.3033012 -5.303301,5.3033012 -2.928932,0 -5.3033,-2.374369 -5.3033,-5.3033012 0,-2.9289322 2.374368,-5.3033009 5.3033,-5.3033009 2.928933,0 5.303301,2.3743687 5.303301,5.3033009 z" transform="matrix(0.77083333,0,0,0.77916666,6.0564434,2.1576238)"/></g><g id="g4695" transform="matrix(1.1326331,0,0,0.44340824,65.580189,2.4215088)"><rect style="fill:#8a8a8a;fill-opacity:1;stroke:none" id="rect4697" width="29.257" height="18.12" x="10.297" y="27.45" rx="1.719" ry="4.391"/><g id="g4699"><g id="g4701"><rect id="rect4703" width="29.02" height="17.982" x="10.51" y="27.517" rx="1.705" ry="4.356" style="fill:none;stroke:#646464;stroke-width:1.41005611;stroke-miterlimit:4;stroke-opacity:1;stroke-dasharray:none"/></g><rect id="rect4705" width="27.319" height="13.832" x="11.337" y="29.624" rx=".886" ry="2.263" style="fill:none;stroke:#b3b3b3;stroke-width:1.40048993;stroke-miterlimit:4;stroke-opacity:1;stroke-dasharray:none"/></g></g><g id="g4681" transform="matrix(0.01936185,0,0,0.01859457,111.41659,40.621203)" style="display:inline"><rect style="opacity:.40206185;color:#000;fill:url(#linearGradient4689);fill-opacity:1;fill-rule:nonzero;stroke:none;stroke-width:1;marker:none;visibility:visible;display:inline;overflow:visible" id="rect4683" width="1339.633" height="478.357" x="-1559.252" y="-150.697"/><path style="opacity:.40206185;color:#000;fill:url(#radialGradient4691);fill-opacity:1;fill-rule:nonzero;stroke:none;stroke-width:1;marker:none;visibility:visible;display:inline;overflow:visible" id="path4685" d="m -219.61876,-150.68038 c 0,0 0,478.33079 0,478.33079 142.874166,0.90045 345.40022,-107.16966 345.40014,-239.196175 0,-132.026537 -159.436816,-239.134595 -345.40014,-239.134615 z"/><path id="path4687" d="m -1559.2523,-150.68038 c 0,0 0,478.33079 0,478.33079 -142.8742,0.90045 -345.4002,-107.16966 -345.4002,-239.196175 0,-132.026537 159.4368,-239.134595 345.4002,-239.134615 z" style="opacity:.40206185;color:#000;fill:url(#radialGradient4693);fill-opacity:1;fill-rule:nonzero;stroke:none;stroke-width:1;marker:none;visibility:visible;display:inline;overflow:visible"/></g><g id="g4672" transform="translate(68.942911,-2.9168155)"><rect id="rect4658" width="29.257" height="18.12" x="10.297" y="27.45" rx="1.947" ry="1.947" style="fill:#ddd;fill-opacity:1;stroke:none"/><g id="g4667"><g id="g4664"><rect style="fill:none;stroke:#646464;stroke-width:.99927008;stroke-miterlimit:4;stroke-opacity:1;stroke-dasharray:none" id="rect4660" width="29.02" height="17.982" x="10.51" y="27.517" rx="1.931" ry="1.931"/></g><rect style="fill:none;stroke:#f6f6f6;stroke-width:.99249077;stroke-miterlimit:4;stroke-opacity:1;stroke-dasharray:none" id="rect4662" width="26.968" height="16.005" x="11.532" y="28.49" rx="1.003" ry="1.003"/></g></g><path id="path4679" d="m 35,33 a 10,10 0 1 1 -20,0 10,10 0 1 1 20,0 z" transform="matrix(1.0023678,0,0,0.95596394,68.883716,-0.0273148)" style="fill:#b8b8b8;fill-opacity:1;fill-rule:evenodd;stroke:none"/><path style="fill:#b8b8b8;fill-opacity:1;fill-rule:evenodd;stroke:#646464;stroke-width:1px;stroke-linecap:butt;stroke-linejoin:miter;stroke-opacity:1" id="path3820" d="m 35,33 a 10,10 0 1 1 -20,0 10,10 0 1 1 20,0 z" transform="matrix(0.94933484,0,0,0.95596394,70.209541,-1.4857225)"/><path id="path4590" d="m 35,33 a 10,10 0 1 1 -20,0 10,10 0 1 1 20,0 z" transform="matrix(0.6928006,0,0,0.69727163,76.6008,8.0344445)" style="fill:#f4f4f4;fill-opacity:1;fill-rule:evenodd;stroke:none"/><g id="g4644" transform="matrix(0.70710678,0.70710678,-0.70710678,0.70710678,99.594592,-10.924363)"><rect style="fill:#232323;fill-opacity:1;stroke:none" id="rect4646" width=".685" height="1.149" x="24.638" y="26.853"/><rect id="rect4648" width=".685" height="1.149" x="24.66" y="37.99" style="fill:#232323;fill-opacity:1;stroke:none"/></g><g id="g4600" transform="translate(69.009202,-2.3643883)" style="fill:#a2a2a2;fill-opacity:1"><rect style="fill:#a2a2a2;fill-opacity:1;stroke:none" id="rect4602" width="1" height="5.938" x="40.743" y="-1.633" transform="matrix(0.67898035,0.73415645,-0.73415645,0.67898035,0,0)"/><path style="fill:#a2a2a2;fill-opacity:1;stroke:none" id="path4604" d="M 26.0625,33.03125 C 26.0625,33.566276 25.600794,34 25.03125,34 24.461706,34 24,33.566276 24,33.03125 c 0,-0.535026 0.461706,-0.96875 1.03125,-0.96875 0.569544,0 1.03125,0.433724 1.03125,0.96875 z" transform="matrix(0.95714504,0,0,1.0228099,1.028519,-0.77553647)"/></g><g id="g4596" transform="translate(68.942911,-2.9168155)"><rect id="rect4592" width="1" height="5.938" x="40.743" y="-1.633" transform="matrix(0.67898035,0.73415645,-0.73415645,0.67898035,0,0)" style="fill:#ff2121;fill-opacity:1;stroke:none"/><path id="path4594" d="M 26.0625,33.03125 C 26.0625,33.566276 25.600794,34 25.03125,34 24.461706,34 24,33.566276 24,33.03125 c 0,-0.535026 0.461706,-0.96875 1.03125,-0.96875 0.569544,0 1.03125,0.433724 1.03125,0.96875 z" transform="matrix(0.95714504,0,0,1.0228099,1.028519,-0.77553647)" style="fill:#ff2121;fill-opacity:1;stroke:none"/></g><path style="fill:none;stroke:#646464;stroke-width:1.37966764;stroke-linecap:butt;stroke-linejoin:miter;stroke-miterlimit:4;stroke-opacity:1;stroke-dasharray:none" id="path4608" d="m 35,33 a 10,10 0 1 1 -20,0 10,10 0 1 1 20,0 z" transform="matrix(0.74693846,0,0,0.74919978,75.258402,5.3595919)"/><g id="g4628" transform="translate(68.942911,-2.9168155)"><rect id="rect4624" width=".685" height="1.149" x="24.638" y="26.853" style="fill:#232323;fill-opacity:1;stroke:none"/><rect style="fill:#232323;fill-opacity:1;stroke:none" id="rect4626" width=".685" height="1.149" x="24.66" y="37.99"/></g><g id="g4632" transform="matrix(0,1,-1,0,126.93079,5.087457)"><rect style="fill:#232323;fill-opacity:1;stroke:none" id="rect4634" width=".685" height="1.149" x="24.638" y="26.853"/><rect id="rect4636" width=".685" height="1.149" x="24.66" y="37.99" style="fill:#232323;fill-opacity:1;stroke:none"/></g><rect style="fill:#232323;fill-opacity:1;stroke:none" id="rect4640" width=".685" height="1.149" x="-45.506" y="-93.834" transform="matrix(-0.70710678,0.70710678,-0.70710678,-0.70710678,0,0)"/><rect id="rect4642" width=".685" height="1.149" x="-45.484" y="-82.697" transform="matrix(-0.70710678,0.70710678,-0.70710678,-0.70710678,0,0)" style="fill:#232323;fill-opacity:1;stroke:none"/><g id="g4707" transform="matrix(1.2021267,0,0,0.11694557,63.863529,11.401153)"><rect id="rect4709" width="29.257" height="18.12" x="10.297" y="27.45" rx="1.62" ry="16.649" style="fill:#d4d4d4;fill-opacity:1;stroke:none"/><g id="g4711"><g id="g4713"><rect style="fill:none;stroke:#646464;stroke-width:2.66511464;stroke-miterlimit:4;stroke-opacity:1;stroke-dasharray:none" id="rect4715" width="29.02" height="17.982" x="10.51" y="27.517" rx="1" ry="16.515"/></g></g></g><g id="g4985" transform="translate(0,-11.125)"><g id="g4874" transform="matrix(0.01936185,0,0,0.01859457,41.505849,40.621203)" style="display:inline"><rect style="opacity:.40206185;color:#000;fill:url(#linearGradient4894);fill-opacity:1;fill-rule:nonzero;stroke:none;stroke-width:1;marker:none;visibility:visible;display:inline;overflow:visible" id="rect4876" width="1339.633" height="478.357" x="-1559.252" y="-150.697"/><path style="opacity:.40206185;color:#000;fill:url(#radialGradient4896);fill-opacity:1;fill-rule:nonzero;stroke:none;stroke-width:1;marker:none;visibility:visible;display:inline;overflow:visible" id="path4878" d="m -219.61876,-150.68038 c 0,0 0,478.33079 0,478.33079 142.874166,0.90045 345.40022,-107.16966 345.40014,-239.196175 0,-132.026537 -159.436816,-239.134595 -345.40014,-239.134615 z"/><path id="path4880" d="m -1559.2523,-150.68038 c 0,0 0,478.33079 0,478.33079 -142.8742,0.90045 -345.4002,-107.16966 -345.4002,-239.196175 0,-132.026537 159.4368,-239.134595 345.4002,-239.134615 z" style="opacity:.40206185;color:#000;fill:url(#radialGradient4898);fill-opacity:1;fill-rule:nonzero;stroke:none;stroke-width:1;marker:none;visibility:visible;display:inline;overflow:visible"/></g><g id="g4882" transform="translate(-0.96783034,-2.9168155)"><rect id="rect4884" width="29.257" height="18.12" x="10.297" y="27.45" rx="1.947" ry="1.947" style="fill:#eaeaea;fill-opacity:1;stroke:none"/><g id="g4886"><g id="g4888"><rect style="fill:none;stroke:#646464;stroke-width:.99927008;stroke-miterlimit:4;stroke-opacity:1;stroke-dasharray:none" id="rect4890" width="29.02" height="17.982" x="10.51" y="27.517" rx="1.931" ry="1.931"/></g><rect style="fill:none;stroke:#fff;stroke-width:.99249077;stroke-miterlimit:4;stroke-opacity:1;stroke-dasharray:none" id="rect4892" width="26.968" height="16.005" x="11.532" y="28.49" rx="1.003" ry="1.003"/></g></g><g id="g4922" transform="matrix(1,0,0,0.9039548,0,2.5932203)"><rect style="fill:#000;fill-opacity:1;stroke:none" id="rect4900" width="1" height="11.063" x="13.063" y="27"/><rect id="rect4902" width="1" height="11.063" x="15.063" y="27" style="fill:#000;fill-opacity:1;stroke:none"/><rect style="fill:#000;fill-opacity:1;stroke:none" id="rect4904" width="1" height="11.063" x="18" y="27"/><rect id="rect4906" width="2" height="11.063" x="19.938" y="27" style="fill:#000;fill-opacity:1;stroke:none"/><rect id="rect4908" width="1" height="11.063" x="22.938" y="27" style="fill:#000;fill-opacity:1;stroke:none"/><rect style="fill:#000;fill-opacity:1;stroke:none" id="rect4910" width="2.063" height="11.063" x="25.938" y="27"/><rect id="rect4912" width="1.125" height="11.063" x="28.938" y="27" style="fill:#000;fill-opacity:1;stroke:none"/><rect style="fill:#000;fill-opacity:1;stroke:none" id="rect4914" width="1.125" height="11.063" x="30.938" y="27"/><rect id="rect4916" width="1.125" height="11.063" x="33.938" y="27" style="fill:#000;fill-opacity:1;stroke:none"/></g><text id="text4918" x="12.981" y="40.195" xml:space="preserve" style="font-size:36.59571838px;font-style:normal;font-weight:400;line-height:125%;letter-spacing:0;word-spacing:0;fill:#000;fill-opacity:1;stroke:none;font-family:Sans"><tspan style="font-size:3.65957189px;font-style:normal;font-variant:normal;font-weight:500;font-stretch:normal;font-family:Inconsolata;-inkscape-font-specification:Inconsolata Medium" id="tspan4920" x="12.981" y="40.195">5 92102431 8</tspan></text><rect id="rect4933" width="30" height="1" x="9.063" y="31.063" style="fill:red;fill-opacity:1;stroke:none"/><rect style="fill:red;fill-opacity:1;stroke:none;filter:url(#filter4971)" id="rect4957" width="30" height="1" x="9.063" y="31.063"/><path id="path4975" d="M 9.0625,32.0625 20,47.875 28.9375,47.9375 39,32.0625 z" style="opacity:.29787233;fill:url(#linearGradient4983);fill-opacity:1;stroke:none"/></g></svg>