<svg xmlns="http://www.w3.org/2000/svg" xmlns:svg="http://www.w3.org/2000/svg" xmlns:xlink="http://www.w3.org/1999/xlink" id="svg2985" width="1600" height="1200" version="1.1"><defs id="defs2987"><marker id="DotL" orient="auto" refX="0" refY="0" style="overflow:visible"><path id="path6730" d="M -2.5,-1.0 C -2.5,1.7600000 -4.7400000,4.0 -7.5,4.0 C -10.260000,4.0 -12.5,1.7600000 -12.5,-1.0 C -12.5,-3.7600000 -10.260000,-6.0 -7.5,-6.0 C -4.7400000,-6.0 -2.5,-3.7600000 -2.5,-1.0 z" transform="scale(0.8) translate(7.4, 1)" style="fill-rule:evenodd;stroke:#000;stroke-width:1pt"/></marker><marker id="DotM" orient="auto" refX="0" refY="0" style="overflow:visible"><path id="path6733" d="M -2.5,-1.0 C -2.5,1.7600000 -4.7400000,4.0 -7.5,4.0 C -10.260000,4.0 -12.5,1.7600000 -12.5,-1.0 C -12.5,-3.7600000 -10.260000,-6.0 -7.5,-6.0 C -4.7400000,-6.0 -2.5,-3.7600000 -2.5,-1.0 z" transform="scale(0.4) translate(7.4, 1)" style="fill-rule:evenodd;stroke:#000;stroke-width:1pt"/></marker><pattern id="pattern6512" patternTransform="matrix(1.4070053,-1.4070053,10.196067,10.196067,0,0)" xlink:href="#Strips1_3"/><pattern id="Strips1_3" width="4" height="1" patternTransform="translate(0,0) scale(10,10)" patternUnits="userSpaceOnUse"><rect id="rect4622" width="1" height="2" x="0" y="-.5" style="fill:#000;stroke:none"/></pattern></defs><metadata id="metadata2990"/><g id="layer1"><g id="g7313"><g id="g6566" transform="translate(0,35.355339)"><g id="g6514" transform="translate(-10.9375,-57.8125)"><path id="path6489" d="m 905,179.59375 -34.8125,31.34375 -118.78125,0 c -5.54,0 -10,4.46 -10,10 l 0,102.5 -157.5,0 c -16.62,0 -30,13.38 -30,30 l 0,632.3125 -27.4375,24.9375 33.25,44.2813 c 0.10609,0.1442 0.2039,0.2952 0.3125,0.4374 l 2.125,2.8126 0.21875,-0.125 c 5.44486,5.6076 13.06148,9.0937 21.53125,9.0937 l 463.43755,0 c 16.6199,0 30,-13.38 30,-30 l 0,-683.75 c 0,-10.90688 -5.7475,-20.40588 -14.4063,-25.65625 l -41.125,-31 -27.3125,26.65625 -45.28125,0 0,-102.5 c 0,-2.89877 -1.22955,-5.48931 -3.1875,-7.3125 l 0.25,-0.375 L 905,179.59375 z" style="opacity:.25;fill:url(#pattern6512);fill-opacity:1;stroke:none"/><g id="g3823" transform="translate(-2.2097087,75.130096)"><g id="g3847"><rect id="rect3843" width="194.275" height="151.061" x="711.835" y="106.163" rx="5.275" ry="5.275" style="fill:#fff;fill-opacity:1;stroke:#000;stroke-width:8.48901749;stroke-miterlimit:4;stroke-opacity:1;stroke-dasharray:none"/><rect style="fill:none;stroke:#000;stroke-width:2;stroke-miterlimit:4;stroke-opacity:1;stroke-dasharray:none" id="rect3845" width="175.419" height="151.061" x="721.263" y="106.163" rx="5.275" ry="5.275"/></g><rect id="rect3765" width="131.814" height="110.992" x="746.012" y="869.838" rx="5.275" ry="5.275" style="fill:#fff;fill-opacity:1;stroke:#000;stroke-width:8.48901749;stroke-miterlimit:4;stroke-opacity:1;stroke-dasharray:none"/><rect style="fill:#fff;fill-opacity:1;stroke:#000;stroke-width:8.48901749;stroke-miterlimit:4;stroke-opacity:1;stroke-dasharray:none" id="rect6618" width="125.185" height="53.539" x="938.256" y="571.528" rx="5.275" ry="5.275"/><rect style="fill:#fff;fill-opacity:1;stroke:#000;stroke-width:8;stroke-miterlimit:4;stroke-opacity:1;stroke-dasharray:none" id="rect2993" width="509.117" height="730.677" x="525.616" y="217.122" rx="34.724" ry="34.724"/><rect id="rect3763" width="474.215" height="694.127" x="543.067" y="235.374" rx="21.787" ry="21.787" style="fill:none;stroke:#000;stroke-width:1.99425566;stroke-miterlimit:4;stroke-opacity:1;stroke-dasharray:none"/><rect style="fill:none;stroke:#000;stroke-width:1.99425554;stroke-miterlimit:4;stroke-opacity:1;stroke-dasharray:none" id="rect3767" width="160.644" height="9.127" x="562.841" y="740.374" rx="5.3" ry="5.3"/><rect id="rect3769" width="73.435" height="9.127" x="828.005" y="667.306" rx="5.3" ry="5.3" style="fill:none;stroke:#000;stroke-width:1.99399996;stroke-miterlimit:4;stroke-opacity:1;stroke-dasharray:none"/><rect id="rect3771" width="160.644" height="9.127" x="693.655" y="313.753" rx="5.3" ry="5.3" style="fill:none;stroke:#000;stroke-width:1.99425554;stroke-miterlimit:4;stroke-opacity:1;stroke-dasharray:none"/><g id="g3783"><rect id="rect3773" width="43.972" height="271.935" x="962.356" y="245.399" rx="5.3" ry="5.3" style="fill:none;stroke:#000;stroke-width:1.99425554;stroke-miterlimit:4;stroke-opacity:1;stroke-dasharray:none"/><rect id="rect3775" width="21.213" height="7.071" x="952.035" y="374.209" rx="5.3" ry="5.3" style="fill:#fff;fill-opacity:1;stroke:none"/><rect style="fill:#fff;fill-opacity:1;stroke:none" id="rect3777" width="21.213" height="7.071" x="992.868" y="373.375" rx="5.3" ry="5.3"/><rect id="rect3779" width="21.213" height="7.071" x="-260.018" y="981.606" rx="5.3" ry="5.3" transform="matrix(0,-1,1,0,0,0)" style="fill:#fff;fill-opacity:1;stroke:none"/><rect style="fill:#fff;fill-opacity:1;stroke:none" id="rect3781" width="21.213" height="7.071" x="-526.684" y="981.606" rx="5.3" ry="5.3" transform="matrix(0,-1,1,0,0,0)"/></g><path style="fill:#fff;fill-opacity:1;stroke:#000;stroke-width:2;stroke-miterlimit:4;stroke-opacity:1;stroke-dasharray:none" id="path3792" d="m 958.1875,822.25 c -9.01707,3.59482 -15.375,12.41301 -15.375,22.71875 0,13.50563 10.93187,24.46875 24.4375,24.46875 13.50563,0 24.46875,-10.96312 24.46875,-24.46875 0,-10.17788 -6.2141,-18.91637 -15.0625,-22.59375 l 0,8.8125 c 4.63325,2.9517 7.6875,8.02222 7.6875,13.78125 0,9.11223 -7.65608,16.5 -17.09375,16.5 -9.43767,0 -17.0625,-7.38777 -17.0625,-16.5 0,-5.88681 3.20248,-11.04837 8,-13.96875 l 0,-8.75 z"/><g id="g3818" transform="translate(0,-1.767767)"><rect id="rect3794" width="46.827" height="8.756" x="943.133" y="879.661" rx="5.3" ry="5.3" style="fill:none;stroke:#000;stroke-width:1.99399996;stroke-miterlimit:4;stroke-opacity:1;stroke-dasharray:none"/><rect style="fill:none;stroke:#000;stroke-width:1.99399996;stroke-miterlimit:4;stroke-opacity:1;stroke-dasharray:none" id="rect3798" width="46.827" height="8.756" x="943.133" y="895.69" rx="5.3" ry="5.3"/><rect id="rect3800" width="46.827" height="8.756" x="943.133" y="910.228" rx="5.3" ry="5.3" style="fill:none;stroke:#000;stroke-width:1.99399996;stroke-miterlimit:4;stroke-opacity:1;stroke-dasharray:none"/></g><rect id="rect3812" width="32.391" height="8.756" x="-845.581" y="963.053" rx="5.3" ry="5.3" transform="matrix(0,-1,1,0,0,0)" style="fill:#fff;fill-opacity:1;stroke:#000;stroke-width:1.99400008;stroke-miterlimit:4;stroke-opacity:1;stroke-dasharray:none"/></g></g><g id="g6559" transform="translate(0,-7.7339804)"><path id="path6539" d="m 1119.5313,856.64062 c 0,5.82488 -4.1974,10.54688 -9.375,10.54688 -5.1777,0 -9.375,-4.722 -9.375,-10.54688 0,-5.82487 4.1973,-10.54687 9.375,-10.54687 5.1776,0 9.375,4.722 9.375,10.54687 z" transform="matrix(1,0,0,0.85333333,0,117.03125)" style="fill:#00fd28;fill-opacity:1;stroke:#000;stroke-width:2.16506362;stroke-miterlimit:4;stroke-opacity:1;stroke-dasharray:none"/><path style="fill:#ff0d0d;fill-opacity:1;stroke:#000;stroke-width:2.16506362;stroke-miterlimit:4;stroke-opacity:1;stroke-dasharray:none" id="path6541" d="m 1119.5313,856.64062 c 0,5.82488 -4.1974,10.54688 -9.375,10.54688 -5.1777,0 -9.375,-4.722 -9.375,-10.54688 0,-5.82487 4.1973,-10.54687 9.375,-10.54687 5.1776,0 9.375,4.722 9.375,10.54687 z" transform="matrix(1,0,0,0.85333333,0,141.44531)"/><path id="path6543" d="m 1119.5313,856.64062 c 0,5.82488 -4.1974,10.54688 -9.375,10.54688 -5.1777,0 -9.375,-4.722 -9.375,-10.54688 0,-5.82487 4.1973,-10.54687 9.375,-10.54687 5.1776,0 9.375,4.722 9.375,10.54687 z" transform="matrix(1,0,0,0.85333333,0,165.85937)" style="fill:#00fd28;fill-opacity:1;stroke:#000;stroke-width:2.16506362;stroke-miterlimit:4;stroke-opacity:1;stroke-dasharray:none"/><path style="fill:#00fd28;fill-opacity:1;stroke:#000;stroke-width:2.16506362;stroke-miterlimit:4;stroke-opacity:1;stroke-dasharray:none" id="path6545" d="m 1119.5313,856.64062 c 0,5.82488 -4.1974,10.54688 -9.375,10.54688 -5.1777,0 -9.375,-4.722 -9.375,-10.54688 0,-5.82487 4.1973,-10.54687 9.375,-10.54687 5.1776,0 9.375,4.722 9.375,10.54687 z" transform="matrix(1,0,0,0.85333333,0,190.27344)"/><path id="path6547" d="m 1119.5313,856.64062 c 0,5.82488 -4.1974,10.54688 -9.375,10.54688 -5.1777,0 -9.375,-4.722 -9.375,-10.54688 0,-5.82487 4.1973,-10.54687 9.375,-10.54687 5.1776,0 9.375,4.722 9.375,10.54687 z" transform="matrix(1,0,0,0.85333333,0,214.6875)" style="fill:#fff90d;fill-opacity:1;stroke:#000;stroke-width:2.16506362;stroke-miterlimit:4;stroke-opacity:1;stroke-dasharray:none"/></g></g><text id="text6598" x="514.014" y="178.876" xml:space="preserve" style="font-size:36.98903275px;font-style:normal;font-weight:400;line-height:125%;letter-spacing:0;word-spacing:0;fill:#000;fill-opacity:1;stroke:none;font-family:Sans"><tspan style="font-style:normal;font-variant:normal;font-weight:400;font-stretch:normal;font-family:Droid Sans;-inkscape-font-specification:Droid Sans" id="tspan6600" x="514.014" y="178.876">2A Power</tspan></text><text style="font-size:36.98903275px;font-style:normal;font-weight:400;line-height:125%;letter-spacing:0;word-spacing:0;fill:#000;fill-opacity:1;stroke:none;font-family:Sans" id="text6602" x="724.27" y="127.216" xml:space="preserve"><tspan id="tspan6604" x="724.27" y="127.216" style="font-style:normal;font-variant:normal;font-weight:400;font-stretch:normal;font-family:Droid Sans;-inkscape-font-specification:Droid Sans">SD Card</tspan></text><text id="text6606" x="319.893" y="626.61" xml:space="preserve" style="font-size:36.98903275px;font-style:normal;font-weight:400;line-height:125%;letter-spacing:0;word-spacing:0;fill:#000;fill-opacity:1;stroke:none;font-family:Sans"><tspan style="font-style:normal;font-variant:normal;font-weight:400;font-stretch:normal;font-family:Droid Sans;-inkscape-font-specification:Droid Sans" id="tspan6608" x="319.893" y="626.61">HDMI</tspan></text><text style="font-size:36.98903275px;font-style:normal;font-weight:400;line-height:125%;letter-spacing:0;word-spacing:0;fill:#000;fill-opacity:1;stroke:none;font-family:Sans" id="text6610" x="761.835" y="1097.278" xml:space="preserve"><tspan id="tspan6612" x="761.835" y="1097.278" style="font-style:normal;font-variant:normal;font-weight:400;font-stretch:normal;font-family:Droid Sans;-inkscape-font-specification:Droid Sans">USB</tspan></text><text id="text6614" x="596.107" y="1097.278" xml:space="preserve" style="font-size:36.98903275px;font-style:normal;font-weight:400;line-height:125%;letter-spacing:0;word-spacing:0;fill:#000;fill-opacity:1;stroke:none;font-family:Sans"><tspan style="font-style:normal;font-variant:normal;font-weight:400;font-stretch:normal;font-family:Droid Sans;-inkscape-font-specification:Droid Sans" id="tspan6616" x="596.107" y="1097.278">RJ45</tspan></text><text style="font-size:36.98903275px;font-style:normal;font-weight:400;line-height:125%;letter-spacing:0;word-spacing:0;fill:#000;fill-opacity:1;stroke:none;font-family:Sans" id="text6620" x="1135.889" y="660.907" xml:space="preserve"><tspan id="tspan6622" x="1135.889" y="660.907" style="font-style:normal;font-variant:normal;font-weight:400;font-stretch:normal;font-family:Droid Sans;-inkscape-font-specification:Droid Sans">Composite</tspan></text><text id="text6624" x="1135.889" y="774.188" xml:space="preserve" style="font-size:36.98903275px;font-style:normal;font-weight:400;line-height:125%;letter-spacing:0;word-spacing:0;fill:#000;fill-opacity:1;stroke:none;font-family:Sans"><tspan style="font-style:normal;font-variant:normal;font-weight:400;font-stretch:normal;font-family:Droid Sans;-inkscape-font-specification:Droid Sans" id="tspan6626" x="1135.889" y="774.188">Audio</tspan></text><text style="font-size:36.98903275px;font-style:normal;font-weight:400;line-height:125%;letter-spacing:0;word-spacing:0;fill:#000;fill-opacity:1;stroke:none;font-family:Sans" id="text6628" x="1135.889" y="774.188" xml:space="preserve"><tspan id="tspan6630" x="1135.889" y="774.188" style="font-style:normal;font-variant:normal;font-weight:400;font-stretch:normal;font-family:Droid Sans;-inkscape-font-specification:Droid Sans">Audio</tspan></text><text id="text6632" x="1212.452" y="891.376" xml:space="preserve" style="font-size:36.98903275px;font-style:normal;font-weight:400;line-height:125%;letter-spacing:0;word-spacing:0;fill:#000;fill-opacity:1;stroke:none;font-family:Sans"><tspan style="font-style:normal;font-variant:normal;font-weight:400;font-stretch:normal;font-family:Droid Sans;-inkscape-font-specification:Droid Sans" id="tspan6634" x="1212.452" y="891.376">Ready</tspan></text><text style="font-size:36.98903275px;font-style:normal;font-weight:400;line-height:125%;letter-spacing:0;word-spacing:0;fill:#000;fill-opacity:1;stroke:none;font-family:Sans" id="text6636" x="1212.452" y="940.457" xml:space="preserve"><tspan id="tspan6638" x="1212.452" y="940.457" style="font-style:normal;font-variant:normal;font-weight:400;font-stretch:normal;font-family:Droid Sans;-inkscape-font-specification:Droid Sans">Power</tspan></text><text id="text6640" x="1212.452" y="986.973" xml:space="preserve" style="font-size:36.98903275px;font-style:normal;font-weight:400;line-height:125%;letter-spacing:0;word-spacing:0;fill:#000;fill-opacity:1;stroke:none;font-family:Sans"><tspan style="font-style:normal;font-variant:normal;font-weight:400;font-stretch:normal;font-family:Droid Sans;-inkscape-font-specification:Droid Sans" id="tspan6642" x="1212.452" y="986.973">Network</tspan></text><path id="path6663" d="m 437.5,614.15728 54.6875,0" style="fill:none;stroke:#000;stroke-width:1px;stroke-linecap:butt;stroke-linejoin:miter;stroke-opacity:1;marker-start:url(#DotL)"/><path style="fill:none;stroke:#000;stroke-width:1px;stroke-linecap:butt;stroke-linejoin:miter;stroke-opacity:1;marker-start:url(#DotL)" id="path7295" d="m 601.86625,199.79103 0,54.6875"/><path id="path7297" d="m 1113.1075,650.87603 -54.6875,0" style="fill:none;stroke:#000;stroke-width:1px;stroke-linecap:butt;stroke-linejoin:miter;stroke-opacity:1;marker-start:url(#DotL)"/><path style="fill:none;stroke:#000;stroke-width:1px;stroke-linecap:butt;stroke-linejoin:miter;stroke-opacity:1;marker-start:url(#DotL)" id="path7299" d="m 1113.1075,761.81353 -76.5625,0"/><path style="fill:none;stroke:#000;stroke-width:1px;stroke-linecap:butt;stroke-linejoin:miter;stroke-opacity:1;marker-start:url(#DotL)" id="path7301" d="m 1192.657,876.26632 -54.6875,0"/><path id="path7303" d="m 1192.657,927.08963 -54.6875,-27.62136" style="fill:none;stroke:#000;stroke-width:1px;stroke-linecap:butt;stroke-linejoin:miter;stroke-opacity:1;marker-start:url(#DotL)"/><path style="fill:none;stroke:#000;stroke-width:1px;stroke-linecap:butt;stroke-linejoin:miter;stroke-opacity:1;marker-start:url(#DotL)" id="path7305" d="m 1192.657,974.04593 -54.6875,0"/><path id="path7307" d="m 1192.657,974.04593 -54.6875,-24.85922" style="fill:none;stroke:#000;stroke-width:1px;stroke-linecap:butt;stroke-linejoin:miter;stroke-opacity:1;marker-start:url(#DotL)"/><path style="fill:none;stroke:#000;stroke-width:1px;stroke-linecap:butt;stroke-linejoin:miter;stroke-opacity:1;marker-start:url(#DotL)" id="path7309" d="m 1192.657,974.04593 -54.6875,-49.16602"/><path style="fill:none;stroke:#000;stroke-width:1px;stroke-linecap:butt;stroke-linejoin:miter;stroke-opacity:1;marker-start:url(#DotL)" id="path7311" d="m 630.03792,1053.883 0,-32.0313"/></g></g></svg>